<?xml version="1.0" encoding="utf-8"?>
<!-- Generator: Adobe Illustrator 16.0.0, SVG Export Plug-In . SVG Version: 6.00 Build 0)  -->
<!DOCTYPE svg PUBLIC "-//W3C//DTD SVG 1.1//EN" "http://www.w3.org/Graphics/SVG/1.1/DTD/svg11.dtd">
<svg version="1.1" xmlns="http://www.w3.org/2000/svg" xmlns:xlink="http://www.w3.org/1999/xlink" x="0px" y="0px"
	 width="1038.898px" height="649.98px" viewBox="0 0 1038.898 649.98" enable-background="new 0 0 1038.898 649.98"
	 xml:space="preserve">
<g id="Layer_1">
	<g>
		<g>
			<path fill="#6F7E43" d="M250.093,211.407l-5.14,1.767c-0.604-1.908-1.398-3.315-2.383-4.226c-0.985-0.909-2.33-1.364-4.035-1.364
				c-1.58,0-2.801,0.463-3.662,1.388c-0.861,0.926-1.292,1.988-1.292,3.187c0,1.322,0.483,2.376,1.452,3.16
				c0.967,0.785,2.898,1.722,5.792,2.812c2.467,0.932,4.367,1.819,5.699,2.663s2.41,1.974,3.235,3.388
				c0.826,1.415,1.238,3.055,1.238,4.917c0,3.023-1.079,5.599-3.235,7.726c-2.157,2.127-5.18,3.19-9.067,3.19
				c-6.711,0-10.865-3.357-12.463-10.072l5.379-1.503c0.941,4.43,3.391,6.645,7.35,6.645c1.935,0,3.404-0.497,4.407-1.49
				c1.003-0.993,1.504-2.219,1.504-3.678c0-1.072-0.346-2.065-1.039-2.979c-0.692-0.914-2.415-1.889-5.166-2.927
				c-2.912-1.09-5.011-2.013-6.298-2.769c-1.288-0.755-2.383-1.872-3.289-3.349c-0.905-1.477-1.358-3.155-1.358-5.036
				c0-2.865,1.007-5.273,3.022-7.225c2.015-1.951,4.691-2.927,8.029-2.927C244.687,202.706,248.459,205.606,250.093,211.407z"/>
			<path fill="#6F7E43" d="M281.25,221.347c0,6.153-1.11,10.802-3.329,13.948c-2.22,3.147-5.442,4.72-9.667,4.72
				c-4.243,0-7.492-1.569-9.746-4.707c-2.255-3.138-3.382-7.792-3.382-13.961c0-6.117,1.119-10.753,3.355-13.909
				c2.237-3.155,5.486-4.733,9.747-4.733c4.208,0,7.43,1.569,9.667,4.707S281.25,215.195,281.25,221.347z M274.938,221.36
				c0-4.275-0.501-7.64-1.504-10.095c-1.003-2.455-2.756-3.682-5.259-3.682c-2.503,0-4.252,1.232-5.246,3.695
				c-0.995,2.463-1.491,5.824-1.491,10.082c0,4.188,0.488,7.531,1.464,10.029c0.976,2.499,2.76,3.748,5.353,3.748
				c2.432,0,4.154-1.209,5.167-3.629C274.432,229.089,274.938,225.707,274.938,221.36z"/>
			<path fill="#6F7E43" d="M286.735,203.365h5.885v22.333c0,2.496,0.133,4.337,0.399,5.524s0.874,2.127,1.824,2.821
				c0.949,0.695,2.232,1.042,3.848,1.042c1.526,0,2.716-0.286,3.568-0.857c0.852-0.571,1.455-1.38,1.811-2.426
				c0.355-1.045,0.533-3.115,0.533-6.209v-22.228h5.406v21.938c0,3.516-0.253,6.223-0.759,8.121s-1.678,3.472-3.515,4.72
				s-4.301,1.872-7.39,1.872c-2.397,0-4.479-0.392-6.245-1.173s-3.102-2.047-4.007-3.797c-0.906-1.749-1.358-4.865-1.358-9.347
				V203.365z"/>
			<path fill="#6F7E43" d="M312.353,203.365h22.209v5.063h-8.122v30.929h-6.019v-30.929h-8.069V203.365z"/>
			<path fill="#6F7E43" d="M337.172,203.365h6.019v14.924h10.705v-14.924h6.019v35.991h-6.019v-16.031H343.19v16.031h-6.019V203.365
				z"/>
			<path fill="#6F7E43" d="M366.891,203.365h20.825v4.772h-14.806v10.283h11.611v4.799h-11.611v11.259h15.046v4.878h-21.064V203.365
				z"/>
			<path fill="#6F7E43" d="M391.976,203.365h10.945c3.958,0,6.879,0.888,8.761,2.663c1.882,1.776,2.823,4.324,2.823,7.646
				c0,4.43-1.855,7.567-5.565,9.413l6.897,16.269h-6.527l-5.65-15.029h-5.665v15.029h-6.019V203.365z M397.995,207.979v11.733h4.607
				c2.059,0,3.573-0.563,4.541-1.688c0.967-1.125,1.451-2.593,1.451-4.403c0-3.761-1.979-5.643-5.938-5.643H397.995z"/>
			<path fill="#6F7E43" d="M420.577,203.365h7.088l11.952,25.945v-25.945h5.033v35.991h-5.619l-13.422-28.819v28.819h-5.033V203.365
				z"/>
			<path fill="#6F7E43" d="M461.586,203.365h6.019v35.991h-6.019V203.365z"/>
			<path fill="#6F7E43" d="M474.395,203.365h7.088l11.952,25.945v-25.945h5.033v35.991h-5.619l-13.422-28.819v28.819h-5.033V203.365
				z"/>
			<path fill="#6F7E43" d="M505.232,203.365h8.185c3.963,0,7.13,0.695,9.503,2.083c2.373,1.389,4.168,3.454,5.385,6.196
				s1.826,5.784,1.826,9.123c0,3.516-0.547,6.649-1.639,9.4c-1.094,2.751-2.764,4.97-5.012,6.658
				c-2.25,1.688-5.453,2.531-9.611,2.531h-8.638V203.365z M511.25,208.137v26.446h2.509c3.505,0,6.049-1.2,7.631-3.599
				c1.584-2.399,2.375-5.603,2.375-9.611c0-8.824-3.334-13.236-10.006-13.236H511.25z"/>
			<path fill="#6F7E43" d="M535.883,203.365h6.02v35.991h-6.02V203.365z"/>
			<path fill="#6F7E43" d="M555.701,203.365h6.746l9.76,35.991h-6.094l-2.281-9.018h-10.658l-2.258,9.018h-5.738L555.701,203.365z
				 M562.646,225.645l-4.168-16.479l-4.129,16.479H562.646z"/>
			<path fill="#6F7E43" d="M575.641,203.365h7.09l11.951,25.945v-25.945h5.033v35.991h-5.619l-13.422-28.819v28.819h-5.033V203.365z
				"/>
			<path fill="#6F7E43" d="M613.969,203.365h6.744l9.76,35.991h-6.094l-2.279-9.018h-10.658l-2.26,9.018h-5.738L613.969,203.365z
				 M620.914,225.645l-4.168-16.479l-4.129,16.479H620.914z"/>
		</g>
	</g>
	<g>
		<g>
			<path fill="#345878" d="M339.253,296.448h10.626c0,0.254,0.013,0.628,0.038,1.124c0.025,0.495,0.038,0.882,0.038,1.162
				c0,6.779-1.428,11.813-4.285,15.101c-2.856,3.289-7.23,4.932-13.121,4.932c-2.793,0-5.193-0.362-7.198-1.085
				c-2.006-0.724-3.732-1.847-5.18-3.371c-1.98-2.031-3.377-4.824-4.189-8.379c-0.813-3.555-1.219-9.75-1.219-18.586
				c0-6.042,0.241-10.848,0.724-14.416c0.482-3.567,1.231-6.227,2.247-7.979c1.574-2.691,3.529-4.64,5.865-5.846
				c2.336-1.206,5.319-1.809,8.95-1.809c5.941,0,10.264,1.549,12.968,4.646c2.704,3.098,4.069,8.074,4.094,14.93h-10.588v-1.409
				c0-3.174-0.514-5.542-1.542-7.103s-2.596-2.342-4.704-2.342c-2.615,0-4.399,1.08-5.351,3.237
				c-0.952,2.158-1.428,8.125-1.428,17.9c0,10.563,0.463,16.986,1.39,19.271c0.927,2.285,2.698,3.428,5.313,3.428
				c2.438,0,4.138-0.895,5.104-2.685c0.965-1.79,1.447-5.097,1.447-9.921V296.448z"/>
			<path fill="#345878" d="M354.373,317.357l13.216-58.652h14.663l13.33,58.652h-11.769l-2.895-14.739h-12.568l-2.818,14.739
				H354.373z M370.064,293.82h9.293l-4.685-24.604L370.064,293.82z"/>
			<path fill="#345878" d="M401.333,317.357v-58.652h19.576c5.916,0,10.175,1.2,12.778,3.599c2.603,2.399,3.904,6.316,3.904,11.75
				c0,3.809-0.699,6.812-2.095,9.007c-1.396,2.196-3.453,3.485-6.17,3.866c5.18,1.371,7.884,5.751,8.112,13.14
				c0,0.33,0,0.584,0,0.762l0.305,7.77c0.101,2.209,0.381,3.98,0.838,5.313s1.167,2.482,2.133,3.447h-12.949
				c-0.305-0.99-0.533-2.152-0.686-3.485s-0.254-3.218-0.305-5.656l-0.152-6.132v-1.562c0-3.402-0.724-5.738-2.171-7.008
				c-1.447-1.27-4.393-1.904-8.836-1.904h-3.732v25.746H401.333z M411.883,283.499h6.284c3.174,0,5.376-0.634,6.608-1.904
				c1.231-1.27,1.847-3.542,1.847-6.817c0-2.919-0.673-4.964-2.019-6.132c-1.346-1.167-3.796-1.752-7.351-1.752h-5.37V283.499z"/>
			<path fill="#345878" d="M446.351,317.357v-58.652h30.126v9.75h-19.271v13.559h17.938v9.293h-17.938v16.148h19.729v9.902H446.351z
				"/>
			<path fill="#345878" d="M484.97,317.357v-58.652h30.125v9.75h-19.271v13.559h17.939v9.293h-17.939v16.148h19.728v9.902H484.97z"
				/>
			<path fill="#345878" d="M523.588,317.357v-58.652h19.576c5.916,0,10.176,1.2,12.779,3.599c2.602,2.399,3.902,6.316,3.902,11.75
				c0,3.809-0.697,6.812-2.094,9.007c-1.396,2.196-3.453,3.485-6.17,3.866c5.18,1.371,7.883,5.751,8.111,13.14
				c0,0.33,0,0.584,0,0.762l0.305,7.77c0.102,2.209,0.381,3.98,0.838,5.313s1.168,2.482,2.133,3.447H550.02
				c-0.305-0.99-0.533-2.152-0.686-3.485s-0.254-3.218-0.305-5.656l-0.152-6.132v-1.562c0-3.402-0.723-5.738-2.17-7.008
				c-1.447-1.27-4.393-1.904-8.836-1.904h-3.732v25.746H523.588z M534.139,283.499h6.283c3.174,0,5.377-0.634,6.609-1.904
				c1.23-1.27,1.846-3.542,1.846-6.817c0-2.919-0.672-4.964-2.018-6.132c-1.346-1.167-3.797-1.752-7.352-1.752h-5.369V283.499z"/>
			<path fill="#345878" d="M618.994,317.357l-1.943-3.732c-1.625,1.625-3.465,2.825-5.521,3.599s-4.432,1.162-7.123,1.162
				c-5.154,0-9.223-1.574-12.205-4.723c-2.984-3.148-4.477-7.427-4.477-12.835c0-3.479,0.826-6.57,2.477-9.274
				s4.545-5.618,8.684-8.741c-1.676-2.615-2.863-4.869-3.561-6.76c-0.699-1.891-1.049-3.726-1.049-5.503
				c0-3.555,1.143-6.417,3.428-8.588s5.332-3.256,9.141-3.256c4.088,0,7.236,0.965,9.445,2.895c2.209,1.93,3.314,4.685,3.314,8.265
				c0,2.996-0.705,5.732-2.113,8.208c-1.41,2.476-3.486,4.627-6.229,6.456l7.047,12.073c0.457-1.27,0.805-2.666,1.047-4.189
				c0.24-1.523,0.361-3.212,0.361-5.065v-0.952h8.951c-0.051,4.063-0.49,7.688-1.314,10.874c-0.826,3.187-2.051,5.96-3.676,8.322
				l6.932,11.769H618.994z M612.9,306.503l-9.598-15.882c-1.752,1.194-3.086,2.609-4,4.247s-1.371,3.409-1.371,5.313
				c0,2.666,0.762,4.919,2.285,6.76c1.523,1.841,3.365,2.761,5.523,2.761c1.244,0,2.418-0.241,3.523-0.724
				C610.367,308.497,611.58,307.671,612.9,306.503z M606.844,277.177c1.422-1.143,2.477-2.291,3.162-3.447
				c0.686-1.155,1.027-2.367,1.027-3.637c0-1.396-0.316-2.462-0.951-3.199c-0.635-0.736-1.563-1.104-2.781-1.104
				c-1.27,0-2.24,0.349-2.912,1.047c-0.674,0.699-1.01,1.708-1.01,3.028c0,0.305,0.076,0.68,0.229,1.124
				c0.152,0.444,0.367,0.92,0.646,1.428L606.844,277.177z"/>
		</g>
	</g>
	<g>
		<g>
			<path fill="#345878" d="M287.285,392.357v-48.979h-12.568v-9.674h36.067v9.674h-12.568v48.979H287.285z"/>
			<path fill="#345878" d="M316.535,392.357v-58.652h30.126v9.75h-19.271v13.559h17.938v9.293h-17.938v16.148h19.729v9.902H316.535z
				"/>
			<path fill="#345878" d="M378.462,371.448h10.626c0,0.254,0.013,0.628,0.038,1.124c0.025,0.494,0.038,0.882,0.038,1.161
				c0,6.779-1.428,11.813-4.285,15.101c-2.856,3.289-7.23,4.933-13.121,4.933c-2.793,0-5.193-0.362-7.198-1.085
				c-2.006-0.725-3.732-1.848-5.18-3.371c-1.98-2.031-3.377-4.824-4.189-8.379c-0.813-3.555-1.219-9.75-1.219-18.586
				c0-6.043,0.241-10.848,0.724-14.416c0.482-3.566,1.231-6.227,2.247-7.979c1.574-2.691,3.529-4.64,5.865-5.846
				c2.336-1.206,5.319-1.81,8.95-1.81c5.941,0,10.264,1.549,12.968,4.646s4.069,8.074,4.094,14.93h-10.588v-1.409
				c0-3.174-0.514-5.541-1.542-7.104c-1.028-1.561-2.596-2.342-4.704-2.342c-2.615,0-4.399,1.079-5.351,3.237
				s-1.428,8.125-1.428,17.9c0,10.563,0.463,16.986,1.39,19.271c0.927,2.285,2.698,3.428,5.313,3.428
				c2.438,0,4.138-0.896,5.104-2.685c0.965-1.791,1.447-5.098,1.447-9.922V371.448z"/>
			<path fill="#345878" d="M397.886,392.357v-58.652h10.854v23.004h14.968v-23.004h10.854v58.652h-10.854v-26.584h-14.968v26.584
				H397.886z"/>
			<path fill="#345878" d="M444.542,392.357v-58.652h11.235l15.272,41.019l-0.305-41.019h10.321v58.652h-11.159l-15.387-41.095
				l0.305,41.095H444.542z"/>
			<path fill="#345878" d="M491.044,392.357v-58.652h10.931v58.652H491.044z"/>
			<path fill="#345878" d="M535.262,371.448h10.627c0,0.254,0.012,0.628,0.037,1.124c0.025,0.494,0.039,0.882,0.039,1.161
				c0,6.779-1.428,11.813-4.285,15.101c-2.855,3.289-7.23,4.933-13.121,4.933c-2.793,0-5.191-0.362-7.197-1.085
				c-2.006-0.725-3.733-1.848-5.18-3.371c-1.98-2.031-3.377-4.824-4.189-8.379s-1.219-9.75-1.219-18.586
				c0-6.043,0.241-10.848,0.724-14.416c0.482-3.566,1.231-6.227,2.247-7.979c1.574-2.691,3.529-4.64,5.865-5.846
				c2.336-1.206,5.319-1.81,8.95-1.81c5.941,0,10.266,1.549,12.969,4.646c2.705,3.098,4.068,8.074,4.094,14.93h-10.588v-1.409
				c0-3.174-0.514-5.541-1.541-7.104c-1.029-1.561-2.598-2.342-4.705-2.342c-2.615,0-4.398,1.079-5.35,3.237
				c-0.953,2.158-1.43,8.125-1.43,17.9c0,10.563,0.463,16.986,1.391,19.271c0.926,2.285,2.697,3.428,5.313,3.428
				c2.438,0,4.139-0.896,5.104-2.685c0.965-1.791,1.447-5.098,1.447-9.922V371.448z"/>
			<path fill="#345878" d="M550.383,392.357l13.215-58.652h14.664l13.33,58.652h-11.77l-2.895-14.739h-12.568l-2.818,14.739H550.383
				z M566.074,368.82h9.293l-4.686-24.604L566.074,368.82z"/>
			<path fill="#345878" d="M597.342,392.357v-58.652h10.932v48.674h19.729v9.979H597.342z"/>
		</g>
	</g>
	<g>
		<g>
			<path fill="#345878" d="M443.901,440.662h8.991c0,0.215,0.011,0.532,0.032,0.95c0.021,0.42,0.032,0.747,0.032,0.983
				c0,5.736-1.208,9.996-3.625,12.778s-6.118,4.173-11.102,4.173c-2.364,0-4.394-0.306-6.091-0.919
				c-1.697-0.611-3.158-1.563-4.383-2.852c-1.676-1.719-2.857-4.082-3.545-7.09c-0.688-3.008-1.031-8.25-1.031-15.727
				c0-5.113,0.204-9.179,0.612-12.197c0.408-3.019,1.042-5.27,1.901-6.752c1.332-2.277,2.986-3.926,4.963-4.947
				c1.977-1.02,4.5-1.53,7.573-1.53c5.027,0,8.685,1.311,10.973,3.932s3.443,6.832,3.464,12.633h-8.959v-1.192
				c0-2.686-0.435-4.689-1.305-6.01c-0.87-1.322-2.197-1.982-3.98-1.982c-2.213,0-3.722,0.913-4.528,2.739
				s-1.208,6.875-1.208,15.146c0,8.938,0.392,14.373,1.176,16.307c0.784,1.934,2.283,2.9,4.496,2.9c2.063,0,3.501-0.757,4.318-2.272
				c0.816-1.514,1.225-4.313,1.225-8.395V440.662z"/>
			<path fill="#345878" d="M460.337,458.354v-49.629h25.491v8.25h-16.307v11.473H484.7v7.863h-15.179v13.664h16.693v8.379H460.337z"
				/>
			<path fill="#345878" d="M493.015,458.354v-49.629h9.507l12.923,34.708l-0.258-34.708h8.733v49.629h-9.442l-13.02-34.772
				l0.258,34.772H493.015z"/>
			<path fill="#345878" d="M539.422,458.354v-41.443h-10.635v-8.186h30.518v8.186H548.67v41.443H539.422z"/>
			<path fill="#345878" d="M564.172,458.354v-49.629h25.49v8.25h-16.307v11.473h15.18v7.863h-15.18v13.664h16.693v8.379H564.172z"/>
			<path fill="#345878" d="M596.85,458.354v-49.629h16.564c5.006,0,8.609,1.016,10.811,3.045c2.203,2.031,3.305,5.345,3.305,9.942
				c0,3.223-0.592,5.764-1.773,7.622s-2.922,2.948-5.221,3.271c4.383,1.16,6.672,4.866,6.865,11.118c0,0.279,0,0.494,0,0.645
				l0.258,6.574c0.086,1.869,0.322,3.367,0.709,4.496c0.387,1.127,0.988,2.1,1.805,2.916h-10.957
				c-0.258-0.838-0.451-1.82-0.58-2.949c-0.129-1.127-0.215-2.723-0.258-4.785l-0.129-5.188v-1.321c0-2.879-0.613-4.855-1.838-5.93
				s-3.717-1.611-7.477-1.611h-3.158v21.785H596.85z M605.775,429.705h5.318c2.686,0,4.549-0.537,5.59-1.611
				c1.043-1.074,1.564-2.997,1.564-5.769c0-2.471-0.57-4.2-1.709-5.188s-3.211-1.482-6.219-1.482h-4.545V429.705z"/>
		</g>
	</g>
</g>
<g id="Layer_2">
	<line fill="none" x1="686.957" y1="190.016" x2="694.41" y2="183.541"/>
	<line fill="none" x1="681.133" y1="195.075" x2="686.957" y2="190.016"/>
	<line fill="none" x1="661.291" y1="212.313" x2="681.133" y2="195.075"/>
	<line fill="none" x1="657.771" y1="215.372" x2="661.291" y2="212.313"/>
	<line fill="none" x1="650.047" y1="222.087" x2="657.771" y2="215.372"/>
	<g>
		<path fill="#345878" d="M671.863,251.177"/>
	</g>
	<path fill="#345878" d="M658.773,461.36l139.639-98.908l0.727,38.545l-160.002,85.816l21.094-82.906l0.727-189.82l16.725-19.636
		l92.365,0.727L658.773,461.36z"/>
	<g>
		<polygon fill="#6F7E43" points="825.705,126.608 826.455,155.858 658.455,462.608 		"/>
		<polyline fill="#6F7E43" points="657.705,462.608 827.195,188.858 827.955,212.69 		"/>
		<polyline fill="#6F7E43" points="657.705,461.858 827.205,236.108 827.963,255.761 		"/>
		<polyline fill="#6F7E43" points="658.455,461.858 825.713,274.358 826.463,290.681 		"/>
		<polyline fill="#6F7E43" points="658.455,461.858 826.451,306.608 827.205,320.123 		"/>
	</g>
</g>
</svg>
